<?xml version="1.0" encoding="UTF-8" standalone="no"?><!DOCTYPE svg PUBLIC "-//W3C//DTD SVG 1.1//EN" "http://www.w3.org/Graphics/SVG/1.1/DTD/svg11.dtd"><svg width="100%" height="100%" viewBox="0 0 78 78" version="1.1" xmlns="http://www.w3.org/2000/svg" xmlns:xlink="http://www.w3.org/1999/xlink" xml:space="preserve" xmlns:serif="http://www.serif.com/" style="fill-rule:evenodd;clip-rule:evenodd;stroke-linecap:round;stroke-linejoin:round;stroke-miterlimit:1.5;"><g id="permanent"><g id="Layer2"><path d="M50.506,51.228c0.014,-0.636 -0.472,-1.172 -1.106,-1.222c-3.983,-0.311 -7.898,-1.663 -11.304,-4.057c-0.428,-0.301 -1.002,-0.29 -1.418,0.027c-0.416,0.317 -0.578,0.867 -0.402,1.36c1.247,3.478 0.496,7.455 -2.126,10.256c-3.79,4.048 -10.154,4.257 -14.202,0.467c-4.048,-3.79 -4.258,-10.154 -0.467,-14.202c3.792,-4.051 10.151,-4.26 14.202,-0.467c0.484,0.453 1.243,0.428 1.696,-0.056l7.688,-8.211c0.453,-0.484 0.428,-1.243 -0.056,-1.696c-9.553,-8.945 -24.548,-8.452 -33.493,1.102c-8.939,9.546 -8.445,24.554 1.102,33.493c9.546,8.938 24.554,8.445 33.493,-1.102c4.111,-4.391 6.271,-10.008 6.393,-15.692Z" style="fill:#fff;stroke:#fff;stroke-width:1px;"/><path d="M27.494,26.771c-0.014,0.637 0.472,1.173 1.107,1.223c3.972,0.308 7.887,1.656 11.304,4.058c0.427,0.301 1.001,0.29 1.417,-0.027c0.416,-0.317 0.579,-0.867 0.402,-1.36c-1.284,-3.583 -0.448,-7.691 2.356,-10.494c3.921,-3.922 10.288,-3.922 14.21,-0c3.921,3.921 3.921,10.288 -0,14.21c-3.924,3.924 -10.286,3.924 -14.21,-0c-0.469,-0.469 -1.229,-0.469 -1.697,-0l-7.954,7.953c-0.469,0.469 -0.469,1.229 0,1.697c9.254,9.254 24.257,9.254 33.511,0c9.248,-9.247 9.248,-24.263 0,-33.511c-9.247,-9.248 -24.263,-9.248 -33.511,0c-4.458,4.458 -6.807,10.316 -6.935,16.251Z" style="fill:#fff;stroke:#fff;stroke-width:1px;"/></g><g id="Layer21" serif:id="Layer2"><path d="M49.306,51.202c-4.192,-0.327 -8.314,-1.751 -11.9,-4.271c1.395,3.894 0.556,8.346 -2.38,11.481c-4.243,4.532 -11.367,4.766 -15.898,0.523c-4.532,-4.243 -4.766,-11.367 -0.523,-15.898c4.245,-4.535 11.363,-4.769 15.898,-0.523l7.688,-8.211c-9.069,-8.492 -23.305,-8.024 -31.797,1.046c-8.486,9.063 -8.017,23.311 1.046,31.797c9.063,8.486 23.311,8.017 31.797,-1.046c3.903,-4.169 5.954,-9.501 6.069,-14.898Z"/><path d="M28.694,26.797c4.182,0.325 8.304,1.745 11.901,4.273c-1.439,-4.011 -0.502,-8.61 2.636,-11.748c4.39,-4.39 11.518,-4.39 15.907,0c4.39,4.39 4.39,11.518 0,15.907c-4.392,4.393 -11.514,4.393 -15.907,0l-7.953,7.954c8.785,8.785 23.028,8.785 31.814,-0c8.779,-8.78 8.779,-23.035 -0,-31.814c-8.78,-8.78 -23.035,-8.78 -31.814,-0c-4.233,4.232 -6.463,9.793 -6.584,15.428Z"/></g></g></svg>