<?xml version="1.0" encoding="UTF-8" standalone="no"?>
<!DOCTYPE svg PUBLIC "-//W3C//DTD SVG 1.1//EN" "http://www.w3.org/Graphics/SVG/1.1/DTD/svg11.dtd">
<svg width="100%" height="100%" viewBox="0 0 75 75" version="1.1" xmlns="http://www.w3.org/2000/svg" xmlns:xlink="http://www.w3.org/1999/xlink" xml:space="preserve" xmlns:serif="http://www.serif.com/" style="fill-rule:evenodd;clip-rule:evenodd;stroke-linejoin:round;stroke-miterlimit:2;">
    <g id="Layer1" transform="matrix(1.12389,0,0,1.12389,-4.11703,-4.76425)">
        <g transform="matrix(0.379525,0.379525,-0.379525,0.379525,26.1776,19.4845)">
            <path d="M37.63,0.31C17.033,0.31 0.337,17.006 0.337,37.603C0.337,58.185 17.047,74.895 37.63,74.895C58.212,74.895 74.923,58.185 74.923,37.603C74.923,27.712 70.994,18.226 64,11.233L50.815,24.418C54.312,27.915 56.276,32.657 56.276,37.603C56.276,47.894 47.921,56.249 37.63,56.249C27.339,56.249 18.983,47.894 18.983,37.603C18.983,27.305 27.332,18.956 37.63,18.956L37.63,0.31Z"/>
        </g>
        <g transform="matrix(-0.379525,-0.379525,0.379525,-0.379525,47.8811,55.7259)">
            <path d="M37.63,0.31C17.033,0.31 0.337,17.006 0.337,37.603C0.337,58.185 17.047,74.895 37.63,74.895C58.212,74.895 74.923,58.185 74.923,37.603C74.923,27.712 70.994,18.226 64,11.233L50.815,24.418C54.312,27.915 56.276,32.657 56.276,37.603C56.276,47.894 47.921,56.249 37.63,56.249C27.339,56.249 18.983,47.894 18.983,37.603C18.983,27.305 27.332,18.956 37.63,18.956L37.63,0.31Z"/>
        </g>
    </g>
</svg>
